<svg xmlns="http://www.w3.org/2000/svg" viewBox="1228 356 16 16">
  <defs>
    <style>
      .cls-1 {
        fill: #fff;
      }
    </style>
  </defs>
  <path id="times" class="cls-1" d="M13.411,79.656l2.245-2.245a1,1,0,0,0,0-1.412L11.607,71.95,15.656,67.9a1,1,0,0,0,0-1.412l-2.245-2.245a1,1,0,0,0-1.412,0L7.95,68.293,3.9,64.244a1,1,0,0,0-1.412,0L.244,66.489a1,1,0,0,0,0,1.412L4.293,71.95.244,76a1,1,0,0,0,0,1.412l2.245,2.245a1,1,0,0,0,1.412,0L7.95,75.607,12,79.656A1,1,0,0,0,13.411,79.656Z" transform="translate(1228.05 292.05)"/>
</svg>
